<?xml version="1.0" encoding="UTF-8" standalone="no"?><!DOCTYPE svg PUBLIC "-//W3C//DTD SVG 1.1//EN" "http://www.w3.org/Graphics/SVG/1.1/DTD/svg11.dtd"><svg width="100%" height="100%" viewBox="0 0 750 500" version="1.1" xmlns="http://www.w3.org/2000/svg" xmlns:xlink="http://www.w3.org/1999/xlink" xml:space="preserve" xmlns:serif="http://www.serif.com/" style="fill-rule:evenodd;clip-rule:evenodd;stroke-linecap:round;stroke-linejoin:round;stroke-miterlimit:10;"><g id="Background-Simple" serif:id="Background Simple"><path d="M672.251,235.033c-20.537,-36.17 -45.862,-69.383 -75.128,-98.685c-31.579,-31.618 -63.771,-52.993 -105.302,-66.826c-28.117,-9.366 -57.445,-14.725 -86.906,-15.721c-54.785,-1.852 -99.974,11.192 -144.979,44.105c-48.25,35.284 -93.262,75.215 -140.281,112.27c-4.908,3.868 -9.835,7.708 -14.788,11.51c-82.004,62.949 -121.835,174.765 -66.384,202.098l638.071,-0c0,-0 58.039,-3.067 43.735,-65.434c-10.013,-43.654 -26.357,-85.134 -48.038,-123.317" style="fill:#cadcff;fill-rule:nonzero;"/></g><g id="Plants"><path d="M45.8,354.076c2.18,0.953 7.513,0.833 7.518,0.833c0.055,-0.002 -1.147,-3.491 -1.248,-3.703c-1.17,-2.448 -4.87,-6.49 -7.881,-6.083c-2.169,0.293 -3.376,2.464 -2.886,4.507c0.5,2.086 2.64,3.634 4.497,4.446" style="fill:#1a2e35;fill-rule:nonzero;"/><path d="M47.641,369.524c2.262,0.329 7.021,-1.051 7.4,-1.162c0.751,2.664 1.739,5.338 2.887,7.987c0.654,1.516 1.361,3.023 2.088,4.524c-0.434,-0.636 -0.827,-1.202 -0.89,-1.275c-1.776,-2.052 -6.412,-4.972 -9.208,-3.785c-2.015,0.856 -2.605,3.268 -1.593,5.108c1.032,1.879 3.506,2.809 5.511,3.101c2.035,0.297 6.116,-0.798 7.193,-1.102c0.285,0.573 0.563,1.148 0.851,1.72c1.378,2.744 2.765,5.477 4.044,8.198c0.45,0.959 0.859,1.92 1.272,2.881c-0.386,-0.565 -0.716,-1.037 -0.774,-1.104c-1.775,-2.052 -6.411,-4.973 -9.208,-3.785c-2.015,0.855 -2.605,3.267 -1.594,5.108c1.035,1.88 3.507,2.81 5.513,3.102c1.941,0.283 5.717,-0.695 6.998,-1.05c0.393,0.996 0.789,1.993 1.124,2.975c0.215,0.677 0.468,1.313 0.645,2.003c0.19,0.682 0.378,1.356 0.564,2.023c0.311,1.298 0.641,2.636 0.913,3.909c0.196,0.885 0.366,1.731 0.54,2.584c-0.438,-0.96 -1.335,-2.82 -1.427,-2.968c-1.443,-2.297 -5.584,-5.886 -8.528,-5.137c-2.122,0.541 -3.07,2.836 -2.349,4.809c0.736,2.014 3.04,3.308 4.978,3.9c2.134,0.653 6.858,0.056 7.447,-0.022c0.284,1.412 0.546,2.787 0.772,4.089c0.506,2.873 0.889,5.449 1.179,7.629l1.992,0c-0.347,-2.255 -0.801,-4.943 -1.402,-7.959c-0.281,-1.435 -0.611,-2.962 -0.964,-4.527c0.355,-0.141 2.37,-0.956 4.155,-1.954c1.555,1.684 5.54,3.656 6.056,3.906c-0.542,1.334 -1.083,2.626 -1.613,3.836c-1.102,2.536 -2.148,4.785 -3.072,6.698l2.154,0c0.794,-1.764 1.667,-3.772 2.577,-5.997c0.556,-1.352 1.124,-2.808 1.693,-4.308c0.571,0.119 5.247,1.069 7.427,0.577c1.976,-0.446 4.371,-1.564 5.255,-3.518c0.867,-1.913 0.091,-4.273 -1.984,-4.97c-2.88,-0.968 -7.276,2.304 -8.887,4.486c-0.095,0.129 -0.97,1.642 -1.506,2.605c0.229,-0.614 0.458,-1.208 0.686,-1.843c0.46,-1.253 0.882,-2.517 1.34,-3.875c0.199,-0.663 0.399,-1.334 0.602,-2.011c0.215,-0.667 0.357,-1.399 0.541,-2.104c0.392,-1.645 0.708,-3.33 0.99,-5.035c1.098,0.399 5.018,1.763 7.049,1.62c2.021,-0.143 4.557,-0.885 5.727,-2.683c1.147,-1.759 0.737,-4.209 -1.207,-5.213c-2.701,-1.392 -7.542,1.176 -9.465,3.09c-0.12,0.118 -1.346,1.648 -2.003,2.5c0.161,-1.026 0.327,-2.05 0.456,-3.094c0.375,-3.012 0.659,-6.073 0.957,-9.126c0.091,-0.935 0.192,-1.866 0.29,-2.798c0.39,0.147 5.014,1.869 7.288,1.709c2.022,-0.141 4.558,-0.884 5.728,-2.682c1.146,-1.76 0.737,-4.209 -1.208,-5.212c-2.701,-1.394 -7.542,1.174 -9.464,3.088c-0.145,0.143 -1.906,2.346 -2.326,2.928c0.217,-2.053 0.452,-4.096 0.766,-6.101c0.428,-2.767 1.003,-5.458 1.751,-8.024c0.181,0.069 4.999,1.887 7.329,1.724c2.022,-0.142 4.557,-0.886 5.728,-2.682c1.145,-1.76 0.737,-4.209 -1.209,-5.213c-2.7,-1.393 -7.541,1.174 -9.465,3.089c-0.15,0.15 -2.043,2.519 -2.355,2.974c0.045,-0.152 0.075,-0.315 0.121,-0.468c0.834,-2.728 1.985,-5.268 3.179,-7.592c0.691,-1.352 1.427,-2.606 2.171,-3.81c0.862,0.431 4.827,2.355 6.939,2.44c2.025,0.081 4.627,-0.378 5.988,-2.037c1.332,-1.623 1.195,-4.102 -0.629,-5.313c-2.531,-1.681 -7.624,0.339 -9.746,2.03c-0.115,0.092 -1.184,1.157 -1.952,1.943c0.343,-0.538 0.688,-1.1 1.028,-1.609c1.271,-1.914 2.553,-3.588 3.7,-5.062c0.659,-0.832 1.271,-1.573 1.852,-2.259c1.067,-0.019 5.366,-0.15 7.246,-1.031c1.833,-0.862 3.931,-2.469 4.375,-4.567c0.434,-2.055 -0.83,-4.193 -3.006,-4.427c-3.021,-0.326 -6.611,3.815 -7.715,6.293c-0.095,0.214 -1.202,3.736 -1.146,3.736c-0,0 0.052,-0.001 0.065,-0.001c-0.573,0.649 -1.178,1.351 -1.824,2.133c-1.182,1.451 -2.504,3.102 -3.821,4.996c-1.322,1.889 -2.704,3.979 -3.962,6.311c-1.264,2.337 -2.473,4.86 -3.385,7.619c-0.01,0.032 -0.016,0.066 -0.027,0.097c0.016,-0.891 -0.023,-3.381 -0.048,-3.571c-0.349,-2.691 -2.604,-7.685 -5.592,-8.238c-2.153,-0.397 -3.976,1.289 -4.147,3.382c-0.175,2.138 1.374,4.278 2.886,5.628c1.705,1.523 6.436,2.997 6.813,3.113c-0.844,2.636 -1.494,5.411 -1.999,8.254c-0.29,1.625 -0.532,3.272 -0.753,4.925c-0.012,-0.769 -0.027,-1.458 -0.04,-1.554c-0.349,-2.691 -2.604,-7.684 -5.592,-8.237c-2.152,-0.398 -3.975,1.289 -4.147,3.382c-0.175,2.138 1.375,4.277 2.886,5.627c1.534,1.37 5.542,2.708 6.608,3.048c-0.079,0.636 -0.164,1.269 -0.239,1.904c-0.365,3.05 -0.715,6.094 -1.151,9.069c-0.152,1.049 -0.341,2.077 -0.527,3.104c-0.011,-0.684 -0.025,-1.259 -0.037,-1.347c-0.349,-2.69 -2.604,-7.684 -5.591,-8.237c-2.153,-0.398 -3.976,1.289 -4.148,3.383c-0.175,2.136 1.376,4.277 2.887,5.627c1.463,1.306 5.152,2.575 6.416,2.985c-0.221,1.048 -0.441,2.097 -0.704,3.102c-0.195,0.682 -0.334,1.352 -0.568,2.027c-0.216,0.672 -0.431,1.338 -0.644,1.997c-0.457,1.255 -0.92,2.552 -1.396,3.765c-0.324,0.845 -0.65,1.645 -0.974,2.453c0.164,-1.043 0.443,-3.09 0.447,-3.263c0.041,-1.802 -0.599,-4.732 -1.873,-6.792c0.008,-0.266 -0.007,-0.531 -0.049,-0.795c-0.333,-2.073 -2.282,-3.614 -4.397,-3.051c-2.936,0.783 -4.798,5.936 -4.937,8.645c-0.009,0.16 0.096,1.904 0.18,3.004c-0.148,-0.639 -0.283,-1.261 -0.443,-1.916c-0.309,-1.299 -0.654,-2.585 -1.021,-3.972c-0.2,-0.663 -0.403,-1.332 -0.607,-2.009c-0.189,-0.674 -0.474,-1.364 -0.71,-2.053c-0.58,-1.588 -1.246,-3.169 -1.953,-4.746c1.138,-0.273 5.159,-1.298 6.774,-2.538c1.608,-1.233 3.313,-3.251 3.298,-5.396c-0.015,-2.101 -1.707,-3.918 -3.884,-3.682c-3.021,0.328 -5.642,5.141 -6.19,7.798c-0.034,0.166 -0.213,2.116 -0.291,3.19c-0.432,-0.945 -0.858,-1.89 -1.326,-2.832c-1.35,-2.719 -2.8,-5.429 -4.236,-8.139c-0.441,-0.83 -0.869,-1.662 -1.302,-2.493c0.406,-0.093 5.213,-1.209 7.022,-2.597c1.607,-1.232 3.312,-3.251 3.297,-5.396c-0.015,-2.1 -1.707,-3.918 -3.883,-3.681c-3.021,0.328 -5.642,5.14 -6.191,7.797c-0.041,0.2 -0.295,3.008 -0.324,3.724c-0.951,-1.831 -1.882,-3.665 -2.727,-5.51c-1.168,-2.544 -2.175,-5.105 -2.966,-7.658c0.19,-0.043 5.211,-1.185 7.064,-2.606c1.608,-1.233 3.313,-3.252 3.298,-5.397c-0.015,-2.1 -1.707,-3.917 -3.884,-3.681c-3.021,0.328 -5.642,5.14 -6.19,7.797c-0.043,0.209 -0.314,3.229 -0.324,3.78c-0.047,-0.151 -0.112,-0.304 -0.157,-0.456c-0.81,-2.736 -1.251,-5.489 -1.537,-8.087c-0.17,-1.509 -0.247,-2.96 -0.291,-4.374c0.957,-0.117 5.325,-0.698 7.134,-1.794c1.734,-1.05 3.65,-2.868 3.871,-5.001c0.215,-2.09 -1.267,-4.082 -3.455,-4.086c-3.039,-0.006 -6.173,4.489 -7.01,7.071c-0.046,0.14 -0.35,1.618 -0.557,2.697c-0.01,-0.638 -0.032,-1.297 -0.029,-1.909c0.004,-2.297 0.149,-4.402 0.293,-6.263c0.09,-1.059 0.193,-2.014 0.299,-2.906c0.879,-0.605 4.393,-3.085 5.474,-4.859c1.055,-1.73 1.917,-4.226 1.13,-6.222c-0.772,-1.954 -3.005,-3.038 -4.95,-2.034c-2.699,1.396 -3.409,6.829 -2.962,9.505c0.039,0.231 1.058,3.779 1.104,3.748c-0,0 0.043,-0.029 0.053,-0.037c-0.119,0.858 -0.236,1.778 -0.343,2.785c-0.186,1.864 -0.377,3.969 -0.431,6.276c-0.06,2.304 -0.061,4.811 0.177,7.45c0.235,2.645 0.617,5.417 1.381,8.222c0.008,0.032 0.021,0.064 0.03,0.095c-0.478,-0.751 -1.885,-2.805 -2.011,-2.951c-1.775,-2.053 -6.411,-4.973 -9.208,-3.786c-2.015,0.856 -2.605,3.269 -1.593,5.108c1.033,1.88 3.507,2.81 5.511,3.102" style="fill:#1a2e35;fill-rule:nonzero;"/><path d="M99.744,355.25c0.047,0.029 0.97,-3.545 1.002,-3.777c0.374,-2.687 -0.482,-8.1 -3.219,-9.421c-1.97,-0.952 -4.174,0.193 -4.891,2.167c-0.734,2.015 0.196,4.488 1.297,6.189c1.292,1.997 5.807,4.839 5.811,4.842" style="fill:#1a2e35;fill-rule:nonzero;"/><path d="M667.312,354.076c2.181,0.953 7.514,0.833 7.518,0.833c0.055,-0.002 -1.146,-3.491 -1.247,-3.703c-1.17,-2.448 -4.871,-6.49 -7.882,-6.083c-2.168,0.293 -3.375,2.464 -2.886,4.507c0.501,2.086 2.641,3.634 4.497,4.446" style="fill:#1a2e35;fill-rule:nonzero;"/><path d="M669.152,369.524c2.262,0.329 7.021,-1.051 7.399,-1.162c0.752,2.664 1.74,5.338 2.887,7.987c0.655,1.516 1.361,3.023 2.089,4.524c-0.434,-0.636 -0.827,-1.202 -0.891,-1.275c-1.775,-2.052 -6.411,-4.972 -9.207,-3.785c-2.015,0.856 -2.605,3.268 -1.593,5.108c1.032,1.879 3.506,2.809 5.511,3.101c2.035,0.297 6.117,-0.798 7.193,-1.102c0.285,0.573 0.563,1.148 0.85,1.72c1.378,2.744 2.766,5.477 4.044,8.198c0.451,0.959 0.861,1.92 1.274,2.881c-0.387,-0.565 -0.717,-1.037 -0.775,-1.104c-1.775,-2.052 -6.411,-4.973 -9.208,-3.785c-2.014,0.855 -2.605,3.267 -1.594,5.108c1.035,1.88 3.507,2.81 5.512,3.102c1.943,0.283 5.719,-0.695 6.999,-1.05c0.393,0.996 0.788,1.993 1.124,2.975c0.214,0.677 0.468,1.313 0.645,2.003c0.19,0.682 0.378,1.356 0.563,2.023c0.313,1.298 0.642,2.636 0.913,3.909c0.197,0.885 0.367,1.731 0.54,2.584c-0.437,-0.96 -1.334,-2.82 -1.426,-2.968c-1.444,-2.297 -5.584,-5.886 -8.529,-5.137c-2.121,0.541 -3.069,2.836 -2.347,4.809c0.736,2.014 3.039,3.308 4.977,3.9c2.134,0.653 6.858,0.056 7.447,-0.022c0.284,1.412 0.545,2.787 0.772,4.089c0.507,2.873 0.889,5.449 1.179,7.629l1.992,0c-0.348,-2.255 -0.801,-4.943 -1.402,-7.959c-0.282,-1.435 -0.611,-2.962 -0.963,-4.527c0.354,-0.141 2.37,-0.956 4.154,-1.954c1.555,1.684 5.54,3.656 6.056,3.906c-0.542,1.334 -1.083,2.626 -1.613,3.836c-1.101,2.536 -2.148,4.785 -3.072,6.698l2.154,0c0.793,-1.764 1.667,-3.772 2.577,-5.997c0.557,-1.352 1.125,-2.808 1.693,-4.308c0.572,0.119 5.249,1.069 7.428,0.577c1.976,-0.446 4.37,-1.564 5.255,-3.518c0.866,-1.913 0.091,-4.273 -1.985,-4.97c-2.88,-0.968 -7.275,2.304 -8.886,4.486c-0.096,0.129 -0.971,1.642 -1.506,2.605c0.228,-0.614 0.457,-1.208 0.685,-1.843c0.461,-1.253 0.883,-2.517 1.341,-3.875c0.198,-0.663 0.399,-1.334 0.601,-2.011c0.216,-0.667 0.357,-1.399 0.542,-2.104c0.391,-1.645 0.707,-3.33 0.99,-5.035c1.097,0.399 5.017,1.763 7.048,1.62c2.021,-0.143 4.558,-0.885 5.727,-2.683c1.148,-1.759 0.737,-4.209 -1.207,-5.213c-2.701,-1.392 -7.543,1.176 -9.466,3.09c-0.12,0.118 -1.345,1.648 -2.001,2.5c0.16,-1.026 0.327,-2.05 0.456,-3.094c0.373,-3.012 0.659,-6.073 0.957,-9.126c0.089,-0.935 0.192,-1.866 0.289,-2.798c0.39,0.147 5.014,1.869 7.288,1.709c2.022,-0.141 4.558,-0.884 5.728,-2.682c1.147,-1.76 0.738,-4.209 -1.207,-5.212c-2.701,-1.394 -7.543,1.174 -9.466,3.088c-0.144,0.143 -1.904,2.346 -2.324,2.928c0.216,-2.053 0.452,-4.096 0.765,-6.101c0.428,-2.767 1.004,-5.458 1.751,-8.024c0.181,0.069 5,1.887 7.33,1.724c2.02,-0.142 4.557,-0.886 5.726,-2.682c1.147,-1.76 0.738,-4.209 -1.207,-5.213c-2.702,-1.393 -7.542,1.174 -9.466,3.089c-0.149,0.15 -2.043,2.519 -2.355,2.974c0.045,-0.152 0.074,-0.315 0.121,-0.468c0.835,-2.728 1.986,-5.268 3.179,-7.592c0.692,-1.352 1.428,-2.606 2.172,-3.81c0.862,0.431 4.827,2.355 6.938,2.44c2.026,0.081 4.628,-0.378 5.988,-2.037c1.332,-1.623 1.195,-4.102 -0.629,-5.313c-2.53,-1.681 -7.625,0.339 -9.745,2.03c-0.115,0.092 -1.184,1.157 -1.952,1.943c0.342,-0.538 0.688,-1.1 1.028,-1.609c1.27,-1.914 2.551,-3.588 3.699,-5.062c0.659,-0.832 1.272,-1.573 1.852,-2.259c1.067,-0.019 5.366,-0.15 7.245,-1.031c1.835,-0.862 3.934,-2.469 4.377,-4.567c0.434,-2.055 -0.831,-4.193 -3.006,-4.427c-3.021,-0.326 -6.611,3.815 -7.714,6.293c-0.096,0.214 -1.203,3.736 -1.147,3.736c-0,0 0.052,-0.001 0.065,-0.001c-0.573,0.649 -1.178,1.351 -1.824,2.133c-1.182,1.451 -2.504,3.102 -3.821,4.996c-1.321,1.889 -2.704,3.979 -3.962,6.311c-1.264,2.337 -2.473,4.86 -3.385,7.619c-0.01,0.032 -0.016,0.066 -0.027,0.097c0.016,-0.891 -0.023,-3.381 -0.049,-3.571c-0.348,-2.691 -2.603,-7.685 -5.592,-8.238c-2.152,-0.397 -3.975,1.289 -4.146,3.382c-0.175,2.138 1.375,4.278 2.887,5.628c1.704,1.523 6.435,2.997 6.811,3.113c-0.843,2.636 -1.494,5.411 -1.998,8.254c-0.29,1.625 -0.532,3.272 -0.754,4.925c-0.011,-0.769 -0.026,-1.458 -0.039,-1.554c-0.349,-2.691 -2.604,-7.684 -5.592,-8.237c-2.153,-0.398 -3.975,1.289 -4.146,3.382c-0.176,2.138 1.374,4.277 2.886,5.627c1.533,1.37 5.542,2.708 6.607,3.048c-0.079,0.636 -0.164,1.269 -0.239,1.904c-0.365,3.05 -0.715,6.094 -1.151,9.069c-0.152,1.049 -0.341,2.077 -0.527,3.104c-0.011,-0.684 -0.025,-1.259 -0.037,-1.347c-0.349,-2.69 -2.604,-7.684 -5.591,-8.237c-2.153,-0.398 -3.976,1.289 -4.148,3.383c-0.175,2.136 1.376,4.277 2.887,5.627c1.463,1.306 5.152,2.575 6.416,2.985c-0.221,1.048 -0.442,2.097 -0.704,3.102c-0.194,0.682 -0.335,1.352 -0.567,2.027c-0.218,0.672 -0.432,1.338 -0.645,1.997c-0.457,1.255 -0.92,2.552 -1.395,3.765c-0.325,0.845 -0.651,1.645 -0.976,2.453c0.164,-1.043 0.444,-3.09 0.448,-3.263c0.042,-1.802 -0.599,-4.732 -1.873,-6.792c0.008,-0.266 -0.007,-0.531 -0.049,-0.795c-0.333,-2.073 -2.282,-3.614 -4.397,-3.051c-2.936,0.783 -4.799,5.936 -4.937,8.645c-0.008,0.16 0.096,1.904 0.18,3.004c-0.148,-0.639 -0.284,-1.261 -0.444,-1.916c-0.308,-1.299 -0.653,-2.585 -1.02,-3.972c-0.2,-0.663 -0.403,-1.332 -0.608,-2.009c-0.188,-0.674 -0.474,-1.364 -0.709,-2.053c-0.581,-1.588 -1.247,-3.169 -1.952,-4.746c1.137,-0.273 5.158,-1.298 6.773,-2.538c1.608,-1.233 3.313,-3.251 3.297,-5.396c-0.014,-2.101 -1.707,-3.918 -3.883,-3.682c-3.02,0.328 -5.642,5.141 -6.19,7.798c-0.034,0.166 -0.213,2.116 -0.291,3.19c-0.432,-0.945 -0.858,-1.89 -1.326,-2.832c-1.35,-2.719 -2.801,-5.429 -4.236,-8.139c-0.441,-0.83 -0.87,-1.662 -1.302,-2.493c0.406,-0.093 5.213,-1.209 7.021,-2.597c1.608,-1.232 3.314,-3.251 3.298,-5.396c-0.015,-2.1 -1.707,-3.918 -3.884,-3.681c-3.02,0.328 -5.641,5.14 -6.19,7.797c-0.041,0.2 -0.294,3.008 -0.324,3.724c-0.952,-1.831 -1.882,-3.665 -2.727,-5.51c-1.169,-2.544 -2.175,-5.105 -2.966,-7.658c0.19,-0.043 5.211,-1.185 7.064,-2.606c1.608,-1.233 3.313,-3.252 3.298,-5.397c-0.015,-2.1 -1.707,-3.917 -3.884,-3.681c-3.021,0.328 -5.642,5.14 -6.19,7.797c-0.043,0.209 -0.314,3.229 -0.324,3.78c-0.047,-0.151 -0.112,-0.304 -0.157,-0.456c-0.81,-2.736 -1.251,-5.489 -1.537,-8.087c-0.169,-1.509 -0.247,-2.96 -0.291,-4.374c0.957,-0.117 5.326,-0.698 7.135,-1.794c1.733,-1.05 3.65,-2.868 3.87,-5.001c0.215,-2.09 -1.267,-4.082 -3.455,-4.086c-3.039,-0.006 -6.173,4.489 -7.01,7.071c-0.046,0.14 -0.351,1.618 -0.557,2.697c-0.01,-0.638 -0.032,-1.297 -0.029,-1.909c0.004,-2.297 0.149,-4.402 0.293,-6.263c0.091,-1.059 0.193,-2.014 0.299,-2.906c0.879,-0.605 4.392,-3.085 5.473,-4.859c1.055,-1.73 1.918,-4.226 1.13,-6.222c-0.77,-1.954 -3.005,-3.038 -4.949,-2.034c-2.699,1.396 -3.409,6.829 -2.963,9.505c0.039,0.231 1.059,3.779 1.105,3.748c-0,0 0.043,-0.029 0.052,-0.037c-0.118,0.858 -0.235,1.778 -0.342,2.785c-0.186,1.864 -0.377,3.969 -0.431,6.276c-0.061,2.304 -0.061,4.811 0.177,7.45c0.235,2.645 0.617,5.417 1.381,8.222c0.008,0.032 0.021,0.064 0.03,0.095c-0.478,-0.751 -1.885,-2.805 -2.011,-2.951c-1.775,-2.053 -6.411,-4.973 -9.208,-3.786c-2.015,0.856 -2.605,3.269 -1.593,5.108c1.033,1.88 3.506,2.81 5.511,3.102" style="fill:#1a2e35;fill-rule:nonzero;"/><path d="M721.255,355.25c0.047,0.029 0.97,-3.545 1.003,-3.777c0.374,-2.687 -0.483,-8.1 -3.219,-9.421c-1.971,-0.952 -4.175,0.193 -4.892,2.167c-0.734,2.015 0.196,4.488 1.297,6.189c1.293,1.997 5.808,4.839 5.811,4.842" style="fill:#1a2e35;fill-rule:nonzero;"/></g><g id="Table"><path d="M38.072,423.784l702.771,0" style="fill:none;fill-rule:nonzero;stroke:#1a2e35;stroke-width:1px;"/></g><g id="Scale"><path d="M569.407,127.953c-0.425,0.223 -12.011,13.769 -14.059,38.682c-0.625,0.297 18.575,-8.72 14.059,-38.682Z" style="fill:none;fill-rule:nonzero;stroke:#1a2e35;stroke-width:1px;"/><path d="M545.838,112.07c0.148,0.742 -1.915,20.241 8.587,40.887c0.081,0.873 9.287,-21.877 -8.587,-40.887Z" style="fill:none;fill-rule:nonzero;stroke:#1a2e35;stroke-width:1px;"/><path d="M535.163,136.776c0.367,0.369 2.824,18.437 18.957,30.965c0.53,0.443 0.867,-24.275 -18.957,-30.965Z" style="fill:none;fill-rule:nonzero;stroke:#1a2e35;stroke-width:1px;"/><path d="M574.398,153.915c-0.458,0.162 -14.254,11.299 -20.562,35.689c-0.651,0.218 19.773,-5.6 20.562,-35.689Z" style="fill:none;fill-rule:nonzero;stroke:#1a2e35;stroke-width:1px;"/><path d="M535.019,157.412c0.312,0.315 0.473,18.088 15.199,31.864c0.477,0.403 3.583,-23.548 -15.199,-31.864Z" style="fill:none;fill-rule:nonzero;stroke:#1a2e35;stroke-width:1px;"/><path d="M572.705,183.189c-0.483,0.087 -16.146,8.179 -26.961,30.986c-0.67,0.12 20.457,-1.857 26.961,-30.986Z" style="fill:none;fill-rule:nonzero;stroke:#1a2e35;stroke-width:1px;"/><path d="M533.395,179.035c0.241,0.348 -2.98,17.762 8.86,34.133c0.396,0.464 7.98,-22.459 -8.86,-34.133Z" style="fill:none;fill-rule:nonzero;stroke:#1a2e35;stroke-width:1px;"/><path d="M565.484,211.453c-0.506,0.003 -17.358,4.911 -32.401,25.453c-0.687,0.012 20.508,1.92 32.4,-25.453Z" style="fill:none;fill-rule:nonzero;stroke:#1a2e35;stroke-width:1px;"/><path d="M527.687,199.904c0.174,0.374 -6.303,16.937 2.158,35.354c0.318,0.519 12.169,-20.7 -2.158,-35.354Z" style="fill:none;fill-rule:nonzero;stroke:#1a2e35;stroke-width:1px;"/><path d="M553.016,237.908c-0.524,-0.089 -17.927,1.572 -36.914,19.156c-0.696,-0.102 19.967,5.656 36.914,-19.156Z" style="fill:none;fill-rule:nonzero;stroke:#1a2e35;stroke-width:1px;"/><path d="M518.084,219.42c0.108,0.393 -9.485,15.596 -4.854,35.415c0.243,0.566 16.144,-18.257 4.854,-35.415Z" style="fill:none;fill-rule:nonzero;stroke:#1a2e35;stroke-width:1px;"/><path d="M535.592,261.744c-0.538,-0.189 -17.886,-1.762 -40.53,12.161c-0.703,-0.226 18.865,9.274 40.53,-12.161Z" style="fill:none;fill-rule:nonzero;stroke:#1a2e35;stroke-width:1px;"/><path d="M504.785,236.97c0.047,0.405 -12.521,13.724 -12.122,34.199c0.172,0.609 19.897,-15.109 12.122,-34.199Z" style="fill:none;fill-rule:nonzero;stroke:#1a2e35;stroke-width:1px;"/><path d="M513.513,282.132c-0.549,-0.297 -17.271,-5.017 -43.281,4.535c-0.706,-0.358 17.24,12.697 43.281,-4.535Z" style="fill:none;fill-rule:nonzero;stroke:#1a2e35;stroke-width:1px;"/><path d="M487.995,251.92c-0.012,0.411 -15.399,11.304 -19.592,31.597c0.103,0.644 23.419,-11.241 19.592,-31.597Z" style="fill:none;fill-rule:nonzero;stroke:#1a2e35;stroke-width:1px;"/><path d="M202.254,127.953c0.425,0.223 12.011,13.769 14.058,38.682c0.625,0.297 -18.574,-8.72 -14.058,-38.682Z" style="fill:none;fill-rule:nonzero;stroke:#1a2e35;stroke-width:1px;"/><path d="M225.823,112.07c-0.149,0.742 1.915,20.241 -8.587,40.887c-0.081,0.873 -9.287,-21.877 8.587,-40.887Z" style="fill:none;fill-rule:nonzero;stroke:#1a2e35;stroke-width:1px;"/><path d="M236.498,136.776c-0.367,0.369 -2.825,18.437 -18.957,30.965c-0.53,0.443 -0.867,-24.275 18.957,-30.965Z" style="fill:none;fill-rule:nonzero;stroke:#1a2e35;stroke-width:1px;"/><path d="M197.264,153.915c0.458,0.162 14.253,11.299 20.561,35.689c0.651,0.218 -19.772,-5.6 -20.561,-35.689Z" style="fill:none;fill-rule:nonzero;stroke:#1a2e35;stroke-width:1px;"/><path d="M236.642,157.412c-0.313,0.315 -0.473,18.088 -15.2,31.864c-0.475,0.403 -3.583,-23.548 15.2,-31.864Z" style="fill:none;fill-rule:nonzero;stroke:#1a2e35;stroke-width:1px;"/><path d="M198.955,183.189c0.484,0.087 16.146,8.179 26.961,30.986c0.67,0.12 -20.457,-1.857 -26.961,-30.986Z" style="fill:none;fill-rule:nonzero;stroke:#1a2e35;stroke-width:1px;"/><path d="M238.266,179.035c-0.241,0.348 2.981,17.762 -8.86,34.133c-0.395,0.464 -7.979,-22.459 8.86,-34.133Z" style="fill:none;fill-rule:nonzero;stroke:#1a2e35;stroke-width:1px;"/><path d="M206.177,211.453c0.506,0.003 17.359,4.911 32.401,25.453c0.685,0.012 -20.51,1.92 -32.401,-25.453Z" style="fill:none;fill-rule:nonzero;stroke:#1a2e35;stroke-width:1px;"/><path d="M243.974,199.904c-0.173,0.374 6.303,16.937 -2.158,35.354c-0.318,0.519 -12.169,-20.7 2.158,-35.354Z" style="fill:none;fill-rule:nonzero;stroke:#1a2e35;stroke-width:1px;"/><path d="M218.646,237.908c0.523,-0.089 17.926,1.572 36.914,19.156c0.696,-0.102 -19.967,5.656 -36.914,-19.156Z" style="fill:none;fill-rule:nonzero;stroke:#1a2e35;stroke-width:1px;"/><path d="M253.577,219.42c-0.109,0.393 9.485,15.596 4.854,35.415c-0.243,0.566 -16.145,-18.257 -4.854,-35.415Z" style="fill:none;fill-rule:nonzero;stroke:#1a2e35;stroke-width:1px;"/><path d="M236.069,261.744c0.537,-0.189 17.885,-1.762 40.529,12.161c0.704,-0.226 -18.865,9.274 -40.53,-12.161Z" style="fill:none;fill-rule:nonzero;stroke:#1a2e35;stroke-width:1px;"/><path d="M266.876,236.97c-0.047,0.405 12.52,13.724 12.122,34.199c-0.171,0.609 -19.897,-15.109 -12.122,-34.199Z" style="fill:none;fill-rule:nonzero;stroke:#1a2e35;stroke-width:1px;"/><path d="M258.148,282.132c0.548,-0.297 17.271,-5.017 43.282,4.535c0.705,-0.358 -17.241,12.697 -43.282,-4.535Z" style="fill:none;fill-rule:nonzero;stroke:#1a2e35;stroke-width:1px;"/><path d="M283.666,251.92c0.012,0.411 15.399,11.304 19.591,31.597c-0.102,0.644 -23.419,-11.241 -19.591,-31.597Z" style="fill:none;fill-rule:nonzero;stroke:#1a2e35;stroke-width:1px;"/><path d="M476.801,174.72l-0,-87.046l33.146,87.046l-33.146,-0Zm-2.496,-0l-32.015,-0l32.015,-84.074l-0,84.074Zm-85.952,-114.51c-1.29,-0 -2.335,-1.046 -2.335,-2.335c-0,-1.29 1.045,-2.336 2.335,-2.336c1.29,-0 2.336,1.046 2.336,2.336c-0,1.289 -1.046,2.335 -2.336,2.335Zm-86.09,114.51l-0,-87.046l33.146,87.046l-33.146,-0Zm-2.496,-0l-32.015,-0l32.015,-84.074l-0,84.074Zm212.374,0.145l-34.594,-90.848l11.239,-0c2.887,-0 5.161,-2.629 4.557,-5.625c-0.44,-2.177 -2.457,-3.684 -4.679,-3.684l-26.505,-0c-0.779,-0 -1.503,0.21 -2.148,0.549l-52.569,-15.607c-0.974,-2.227 -3.19,-3.787 -5.776,-3.787l-6.82,-1.316l-0,-2.394c-0,-3.638 -2.948,-6.587 -6.586,-6.587l-0.001,-0c-3.637,-0 -6.586,2.949 -6.586,6.587l-0,2.25l-7.567,1.46c-2.871,-0 -5.266,1.93 -6.029,4.555l-49.98,14.839c-0.646,-0.339 -1.369,-0.549 -2.149,-0.549l-26.504,-0c-2.222,-0 -4.239,1.507 -4.679,3.684c-0.604,2.996 1.67,5.625 4.557,5.625l10.445,-0l-0,1.014l-34.153,89.689l-1.349,-0c-0.209,-0 -0.395,0.129 -0.468,0.325c-0.074,0.195 -0.017,0.415 0.139,0.552l8.354,7.281c0.092,0.079 0.208,0.123 0.329,0.123c-0,-0 55.933,-0.044 56.024,-0.123c-0,-0 12.236,-7.616 12.345,-7.86c0.109,-0.244 -3.29,0.095 -3.385,-0.153l-34.594,-90.848l12.939,-0c1.743,-0 3.244,-0.969 4.041,-2.386l49.89,-14.811c1.12,1.018 2.593,1.655 4.227,1.655l7.567,-1.412l-0,4.849l4.457,-0l-0,175.924l-5.965,-0l-0,7.668l-45.228,-0l-0,6.64l106.646,-0l-0,-6.64l-45.229,-0l-0,-7.668l-5.964,-0l-0,-175.924l4.456,-0l-0,-4.799l6.82,1.362c1.904,-0 3.591,-0.861 4.747,-2.194l51.705,15.35c0.798,1.417 2.299,2.386 4.041,2.386l12.146,-0l-0,1.014l-34.153,89.689l-1.349,-0c-0.208,-0 -0.395,0.129 -0.468,0.325c-0.073,0.195 -0.017,0.415 0.14,0.552l8.353,7.281c0.092,0.079 0.208,0.123 0.329,0.123c-0,-0 55.933,-0.044 56.024,-0.123c-0,-0 12.235,-7.616 12.345,-7.86c0.109,-0.244 -3.289,0.095 -3.385,-0.153Z" style="fill:none;fill-rule:nonzero;stroke:#1a2e35;stroke-width:1px;"/></g><g id="Character-2" serif:id="Character 2"><path d="M317.593,291.181c0,-0 -2.118,24.007 -2.119,25.44c-0.002,1.435 -27.798,67.735 -29.955,73.792c-2.157,6.057 -6.472,17.931 -5.043,23.136c1.428,5.205 9.311,10.167 13.85,11.67c4.54,1.503 13.623,1.4 15.297,1.099c1.673,-0.303 10.517,-0.157 10.517,-0.157l8.626,-20.642l-7.645,-3.775l11.508,-33.18l-4.74,-39.973l-10.296,-37.41Z" style="fill:#1a2e35;fill-rule:nonzero;stroke:#1a2e35;stroke-width:1px;"/><path d="M321.122,401.743c-0,0 -17.918,-8.171 -27.24,-7.82" style="fill:none;fill-rule:nonzero;stroke:#fff;stroke-width:1px;"/><path d="M336.382,395.596l-2.286,28.183l123.365,-0c-4.369,-25.554 -4.369,-45.599 -4.369,-45.599c0,-0 6.193,-49.805 6.199,-55.71c0.007,-5.906 4.749,-22.916 3.57,-25.824c-1.177,-2.909 -27.153,-10.791 -38.369,-14.798c-11.216,-4.008 -27.157,-7.543 -27.157,-7.543l-29.236,3.166c0,-0 -34.258,6.308 -41.641,7.472c-7.383,1.163 -8.27,2.968 -8.864,6.238c-0.594,3.27 10.295,37.41 10.295,37.41l8.493,67.005Z" style="fill:#1a2e35;fill-rule:nonzero;stroke:#1a2e35;stroke-width:1px;"/><path d="M364.282,295.274c0,0 2.283,15.549 5.258,28.312c2.976,12.764 11.233,31.767 11.233,31.767c0,0 20.036,-32.482 23.04,-47.54c3.005,-15.058 3.929,-19.69 3.929,-19.69l-43.222,-0.445l-0.238,7.596Z" style="fill:#fff;fill-rule:nonzero;stroke:#1a2e35;stroke-width:1px;"/><path d="M368.909,267.511c0,-0 -4.149,10.272 -6.222,14.259c-2.073,3.986 -14.047,20.99 -13.358,22.345c0.688,1.353 6.667,-0.482 8.278,-1.232c1.61,-0.75 8.97,-3.556 8.97,-3.556c0,-0 -1.613,3.509 -0.925,4.633c0.689,1.124 11.714,11.285 11.714,11.285l8.736,0.132c0,-0 1.382,-1.661 2.993,-3.101c1.61,-1.441 12.423,-8.285 15.184,-10.228c2.761,-1.943 2.996,-7.01 2.996,-7.01c0,-0 14.246,7.742 14.939,4.956c0.693,-2.785 -2.982,-6.095 -6.651,-15.614c-3.669,-9.518 -5.042,-15.675 -8.026,-20.161c-2.984,-4.486 -4.133,-4.673 -4.133,-4.673l-34.495,7.965Z" style="fill:#fff;fill-rule:nonzero;stroke:#1a2e35;stroke-width:1px;"/><path d="M371.892,273.376c0,-0 0.893,25.258 1.119,29.617c0.225,4.361 9.171,24.028 10.783,21.438c1.612,-2.59 11.978,-22.063 15.204,-29.312c3.227,-7.249 4.392,-21.777 4.854,-24.784c0.463,-3.006 0.937,-16.589 0.937,-16.589c0,-0 -11.974,18.153 -16.805,20.864c-4.831,2.711 -16.092,-1.234 -16.092,-1.234Z" style="fill:#fff;fill-rule:nonzero;stroke:#1a2e35;stroke-width:1px;"/><path d="M386.923,280.123l-14.438,8.885l-0.593,-15.632l15.031,6.747Z" style="fill:#1a2e35;fill-rule:nonzero;stroke:#1a2e35;stroke-width:1px;"/><path d="M328.767,405.519c-0,-0 27.245,3.518 29.157,3.445c1.912,-0.071 10.511,4.865 13.616,7.138c3.105,2.273 9.178,7.548 9.178,7.548l-31.654,0.707c-0,-0 -3.585,-0.821 -5.497,-0.75c-1.912,0.072 -4.543,1.605 -10.04,1.573c-5.498,-0.032 -11.71,-2.668 -11.71,-2.668l6.95,-16.993Z" style="fill:#fff;fill-rule:nonzero;stroke:#1a2e35;stroke-width:1px;"/><path d="M338.928,418.966c0,-0 5.85,-1.308 7.753,-0.428c1.904,0.881 9.38,5.225 9.38,5.225" style="fill:none;fill-rule:nonzero;stroke:#1a2e35;stroke-width:1px;"/><path d="M343.693,414.706c0,0 8.978,-0.065 10.474,0.423c1.495,0.487 10.736,8.573 10.736,8.573" style="fill:none;fill-rule:nonzero;stroke:#1a2e35;stroke-width:1px;"/><path d="M352.266,411.663c-0,0 7.209,0.001 8.296,1.049c1.087,1.047 11.688,9.49 12.503,10.548" style="fill:none;fill-rule:nonzero;stroke:#1a2e35;stroke-width:1px;"/><path d="M422.878,413.899l-4.653,-10.446l11.09,-1.254c-0,0 0.95,8.654 -6.437,11.7Z" style="fill:#fff;fill-rule:nonzero;stroke:#1a2e35;stroke-width:1px;"/><path d="M442.466,317.787c-0,0 -15.079,19.169 -15.379,23.905c-0.3,4.736 6.45,43.755 6.45,43.755l-13.29,3.157c-0,0 3.533,9.317 3.528,14.631c-0.006,5.316 -0.897,10.664 -0.897,10.664c-0,0 26.274,5.214 33.361,4.357c7.087,-0.858 9.157,-3.592 13.593,-9.96c4.436,-6.368 -0.868,-17.094 -3.224,-22.911c-2.357,-5.817 -1.467,-8.803 -1.467,-8.803l-6.729,-60.576" style="fill:#1a2e35;fill-rule:nonzero;stroke:#1a2e35;stroke-width:1px;"/><path d="M433.537,385.447c0,0 15.948,-3.553 25.692,-3.919" style="fill:#fff;fill-rule:nonzero;stroke:#1a2e35;stroke-width:1px;"/><path d="M383.743,366.462l-4.368,-24.315c0,-0 -25.526,1.169 -36.824,1.802c-11.298,0.635 -44.98,-0.4 -44.98,-0.4c0,-0 19.403,51.157 21.073,55.278c1.669,4.122 3.13,7.624 3.13,7.624c0,-0 19.662,3.446 39.329,2.915c19.667,-0.53 28.458,-5.255 28.458,-5.255l-5.818,-37.649Z" style="fill:#fff;fill-rule:nonzero;stroke:#1a2e35;stroke-width:1px;"/><path d="M420.247,388.605l-9.325,-3.707c-0,-0 -15.887,-12.166 -17.351,-13.575c-1.463,-1.41 -9.827,-4.862 -9.827,-4.862l1.872,9.764c-0,-0 -28.466,12.786 -30.351,14.322c-1.884,1.536 2.089,2.851 2.089,2.851c-0,-0 -3.768,2.442 -1.886,3.627c1.882,1.183 8.367,0.94 8.367,0.94c-0,0 3.973,2.152 8.157,2.623c4.184,0.471 13.807,0.945 13.807,0.945c-0,0 -1.048,1.714 -4.187,2.668c-3.139,0.956 -12.557,4.029 -11.303,5.656c1.253,1.627 10.251,0.032 10.251,0.032c-0,0 17.159,-3.782 17.787,-3.805c0.628,-0.024 6.066,1.236 8.786,1.132c2.719,-0.101 8.997,-1.174 8.997,-1.174l7.532,-0.075c-0,0 -0.158,-12.591 -3.415,-17.363Z" style="fill:#fff;fill-rule:nonzero;stroke:#1a2e35;stroke-width:1px;"/><path d="M385.616,376.225l5.233,-2.498" style="fill:none;fill-rule:nonzero;stroke:#1a2e35;stroke-width:1px;"/><path d="M357.354,393.398l28.672,-9.447" style="fill:none;fill-rule:nonzero;stroke:#1a2e35;stroke-width:1px;"/><path d="M363.835,397.966l26.784,-4.773" style="fill:none;fill-rule:nonzero;stroke:#1a2e35;stroke-width:1px;"/><path d="M385.798,401.533l7.532,-0.492" style="fill:none;fill-rule:nonzero;stroke:#1a2e35;stroke-width:1px;"/><path d="M389.667,189.651c0,-0 1.708,-9.286 4.621,-9.881c2.913,-0.595 21.236,0.756 24.628,6.211c3.392,5.454 4.703,24.234 3.002,26.24c-1.7,2.005 -12.137,3.853 -13.351,3.899c-1.213,0.046 -5.324,-13.39 -11.871,-18.483c-6.547,-5.092 -7.029,-7.986 -7.029,-7.986Z" style="fill:#1a2e35;fill-rule:nonzero;stroke:#1a2e35;stroke-width:1px;"/><path d="M357.632,192.554c0,-0 -8.012,3.941 -9.473,8.607c-1.461,4.666 -1.709,9.771 -1.709,9.771c0,-0 -10.195,3.539 -8.99,11.259c1.205,7.72 9.693,12.497 10.421,12.955c0.728,0.458 7.995,12.319 7.995,12.319l0.738,-9.977c0,-0 -0.483,-1.681 10.681,-2.586c11.163,-0.905 18.927,0.259 22.083,-0.588c3.155,-0.846 4.369,-1.135 4.369,-1.135c0,-0 0.727,0.944 4.123,2.757c3.395,1.814 8.002,5.766 9.701,4.489c1.701,-1.277 3.896,-12.28 3.896,-12.28c0,-0 1.476,-18.741 1.479,-22.139c0.004,-3.398 -7.512,-10.153 -9.452,-11.779c-1.939,-1.626 -17.948,-8.304 -21.587,-9.381c-3.639,-1.076 -14.318,0.296 -18.446,2.878c-4.128,2.582 -5.829,4.83 -5.829,4.83Z" style="fill:#1a2e35;fill-rule:nonzero;stroke:#1a2e35;stroke-width:1px;"/><path d="M352.008,233.049c0,0 6.771,23.286 7.494,28.112c0.625,4.17 5.66,8.343 8.464,11.102c2.901,2.855 12.977,13.801 17.236,9.772c2.672,-2.527 12.799,-12.359 15.715,-16.351c2.916,-3.993 3.484,-9.851 4.458,-13.528l0.974,-3.677c0,0 4.857,-3.095 5.589,-7.248c0.733,-4.153 3.169,-13.466 -0.472,-13.087c-3.64,0.38 -3.889,6.214 -4.133,7.922c-0.244,1.708 -2.184,0.082 -3.396,-1.086c-1.212,-1.168 -4.366,-1.292 -5.821,-2.936c-1.454,-1.644 1.956,-14.391 0.257,-13.357c-1.7,1.034 -2.923,10.06 -13.844,10.713c-10.92,0.653 -18.441,-1.006 -18.441,-1.006c0,0 -4.862,7.949 -14.08,4.655Z" style="fill:#fff;fill-rule:nonzero;stroke:#1a2e35;stroke-width:1px;"/><path d="M375.948,242.276c-0,0 -21.179,-0.802 -21.779,-0.18c-0.6,0.622 1.39,8.14 3.186,10.471c1.796,2.33 10.988,1.984 13.786,0.68c2.799,-1.304 4.807,-10.971 4.807,-10.971Z" style="fill:none;fill-rule:nonzero;stroke:#1a2e35;stroke-width:1px;"/><path d="M379.745,242.134c-0,-0 3.786,10.049 5.982,11.165c2.197,1.116 7.791,1.505 10.789,0.993c2.998,-0.512 5.198,-2.193 5.598,-3.008c0.401,-0.814 1.409,-10.244 1.409,-10.244l-23.778,1.094Z" style="fill:none;fill-rule:nonzero;stroke:#1a2e35;stroke-width:1px;"/><path d="M379.745,242.134l-3.797,0.143" style="fill:none;fill-rule:nonzero;stroke:#1a2e35;stroke-width:1px;"/><path d="M403.523,241.04l3.805,-7.936" style="fill:none;fill-rule:nonzero;stroke:#1a2e35;stroke-width:1px;"/><path d="M362.754,248.167c0,0 4.392,3.631 8.193,-0.308" style="fill:none;fill-rule:nonzero;stroke:#1a2e35;stroke-width:1px;"/><path d="M386.732,248.065c-0,0 5.592,2.388 8.393,-0.515" style="fill:none;fill-rule:nonzero;stroke:#1a2e35;stroke-width:1px;"/><path d="M371.952,241.627c0,0 -6.991,-2.734 -12.387,-1.133" style="fill:none;fill-rule:nonzero;stroke:#1a2e35;stroke-width:1px;"/><path d="M383.143,240.607c0,0 8.793,-1.729 13.788,-0.718" style="fill:none;fill-rule:nonzero;stroke:#1a2e35;stroke-width:1px;"/><path d="M374.932,258.301c0,-0 -0.204,3.804 0.195,4.389c0.399,0.584 1.996,2.322 3.595,2.062c1.599,-0.26 4.797,-2.379 4.797,-2.379" style="fill:none;fill-rule:nonzero;stroke:#1a2e35;stroke-width:1px;"/><path d="M373.125,267.16c-0,0 5.591,3.786 11.79,-0.643" style="fill:none;fill-rule:nonzero;stroke:#1a2e35;stroke-width:1px;"/></g><g id="Character-3" serif:id="Character 3"><path d="M555.619,196.359c0,-0 11.503,-22.23 15.977,-22.079c4.474,0.152 4.548,7.881 4.548,7.881c0,-0 8.736,-6.647 9.879,-4.033l1.143,2.614c0,-0 20.762,5.295 28.828,15.086c8.067,9.792 11.961,20.449 8.341,28.165c-3.621,7.716 -10.424,33.353 -10.424,33.353l2.775,10.62l-31.082,18.432l-7.274,-13.348c0,-0 -15.949,4.723 -18.01,2.75c-2.061,-1.974 -10.477,-27.902 -10.477,-27.902l-9.739,-6.713c0,-0 8.473,-18.749 9.203,-23.764c0.73,-5.014 3.748,-14.766 6.312,-21.062Z" style="fill:#fff;fill-rule:nonzero;stroke:#1a2e35;stroke-width:1px;"/><path d="M553.854,253.903c-0,0 2.207,1.642 5.176,-3.826" style="fill:none;fill-rule:nonzero;stroke:#1a2e35;stroke-width:1px;"/><path d="M555.619,196.359c0,-0 11.503,-22.23 15.978,-22.079c4.473,0.152 4.547,7.881 4.547,7.881c0,-0 8.736,-6.647 9.879,-4.033l1.143,2.614c0,-0 20.762,5.295 28.828,15.086c8.067,9.792 11.961,20.449 8.341,28.165c-2.799,5.965 -7.497,22.631 -9.487,29.892c-2.247,0.934 -4.601,1.654 -6.931,1.914c-10.005,1.117 -19.668,-7.832 -19.668,-7.832c0,-0 5.845,-3.946 3.672,-12.53c-2.173,-8.583 -8.105,-8.673 -8.105,-8.673c0,-0 -3.142,6.837 -7.918,5.667c-4.776,-1.169 3.08,-8.294 3.433,-12.089c0.352,-3.796 -4.448,-7.542 -5.83,-9.716c-1.382,-2.174 5.945,-3.606 8.258,-5.767c2.312,-2.162 -14.289,-4.627 -17.946,-5.759c-3.657,-1.132 3.193,-1.683 6.323,-4.825c3.129,-3.142 -14.517,2.084 -14.517,2.084Z" style="fill:#1a2e35;fill-rule:nonzero;stroke:#1a2e35;stroke-width:1px;"/><path d="M553.843,224.934c-0.11,2.049 0.512,3.749 1.391,3.796c0.878,0.048 1.679,-1.575 1.79,-3.625c0.109,-2.049 -0.513,-3.749 -1.391,-3.796c-0.879,-0.047 -1.68,1.576 -1.79,3.625" style="fill:#1a2e35;fill-rule:nonzero;"/><path d="M559.952,217.222c0,-0 -4.171,-9.1 -9.073,-3.219" style="fill:none;fill-rule:nonzero;stroke:#1a2e35;stroke-width:1px;"/><path d="M588.249,247.967l-6.949,0.212l-0.19,5.593" style="fill:none;fill-rule:nonzero;stroke:#1a2e35;stroke-width:1px;"/><path d="M574.447,291.127c0,0 -5.714,5.356 -6.428,8.57c-0.715,3.214 -1.071,6.071 -1.071,6.071c0,0 -10.355,14.284 -11.427,22.139c-1.071,7.857 2.143,24.996 2.143,24.996l20.711,-61.419l-3.928,-0.357Z" style="fill:#1a2e35;fill-rule:nonzero;stroke:#1a2e35;stroke-width:1px;"/><path d="M617.4,256.048c-0,-0 -42.741,30.472 -42.968,31.376c-0.226,0.904 -0.452,9.725 -0.452,9.725l49.298,-32.565l-5.879,-8.536Z" style="fill:#fff;fill-rule:nonzero;stroke:#1a2e35;stroke-width:1px;"/><path d="M573.98,297.148c-0,0 -11.759,20.578 -12.438,23.744c-0.678,3.166 -7.688,47.941 -7.688,47.941l-8.829,54.951l111.043,0c-0,0 -2.419,-22.454 -3.776,-40.771c-1.357,-18.317 -1.999,-45.305 -8.662,-69.291c-3.747,-13.489 -20.352,-49.138 -20.352,-49.138l-49.298,32.564Z" style="fill:#92b8ff;fill-rule:nonzero;stroke:#1a2e35;stroke-width:1px;"/><path d="M520.371,363.85c0,-0 -5.755,-10.275 -6.987,-11.714c-1.234,-1.438 -6.989,-3.494 -8.632,-4.11c-1.645,-0.617 -15.208,-5.138 -16.03,-5.138c-0.822,-0 -1.85,1.85 -1.644,3.904c0.205,2.056 3.699,4.522 4.522,4.727c0.821,0.206 -10.482,0.206 -14.387,0.617c-3.905,0.411 -11.303,1.85 -11.919,3.493c-0.617,1.645 0,3.288 2.261,3.494c2.259,0.206 6.576,-0.411 6.576,-0.411l10.686,1.028c0,-0 -13.769,2.054 -15.824,2.465c-2.056,0.412 -3.288,3.083 -2.261,4.522c1.028,1.438 6.988,0.616 6.988,0.616l10.07,-0.616c0,-0 -13.153,4.11 -13.77,4.933c-0.616,0.822 -0.206,3.288 1.644,3.699c1.85,0.411 10.481,-0.616 10.481,-0.616l4.316,0.616c0,-0 -6.165,0.822 -6.165,1.643c0,0.823 0,2.056 1.438,2.056c1.439,-0 10.893,-0.206 10.893,-0.206c0,-0 4.315,2.467 8.015,2.261c3.699,-0.205 18.907,-2.055 18.907,-2.055l0.822,-15.208Z" style="fill:#fff;fill-rule:nonzero;stroke:#1a2e35;stroke-width:1px;"/><path d="M491.6,351.519l6.498,3.188c-0,-0 -0,6.218 5.741,10.286" style="fill:none;fill-rule:nonzero;stroke:#1a2e35;stroke-width:1px;"/><path d="M484.702,358.055c0,-0 1.436,12.678 2.393,15.787" style="fill:none;fill-rule:nonzero;stroke:#1a2e35;stroke-width:1px;"/><path d="M557.778,366.284l-28.224,-1.478l0,15.617l24.64,3.377l3.584,-17.516Z" style="fill:#91b7ff;fill-rule:nonzero;stroke:#1a2e35;stroke-width:1px;"/><path d="M529.555,364.807l-9.184,-1.267l-0.896,15.618l10.08,1.265l-0,-15.616Z" style="fill:#fff;fill-rule:nonzero;stroke:#1a2e35;stroke-width:1px;"/><path d="M610.466,299.585c-0,0 -8.487,-6.11 -13.58,-5.092c-5.092,1.018 -20.03,6.111 -23.426,12.901c-3.394,6.79 -24.104,68.58 -24.104,68.58l-78.713,-5.838l-2.911,28.447c-0,0 84.679,17.791 91.469,18.81c6.79,1.018 14.259,1.018 17.655,-2.376c3.394,-3.396 39.043,-80.123 39.043,-80.123" style="fill:#92b8ff;fill-rule:nonzero;stroke:#1a2e35;stroke-width:1px;"/><path d="M470.643,370.136l-12.768,-1.792l-1.096,24.287l11.176,1.696l2.688,-24.191Z" style="fill:#fff;fill-rule:nonzero;stroke:#1a2e35;stroke-width:1px;"/><path d="M457.875,368.344c0,-0 -6.496,-8.288 -7.84,-11.648c-1.344,-3.36 -8.288,-3.808 -11.424,-4.705c-3.135,-0.895 -7.616,-2.687 -8.064,-1.119c-0.448,1.568 -0.672,4.928 1.12,6.272c1.792,1.344 6.048,2.24 7.168,3.136c1.12,0.896 2.24,1.792 2.24,1.792l-20.384,2.016c0,-0 -9.408,-1.345 -13.664,-0c-4.256,1.344 -7.616,1.344 -7.84,3.136c-0.224,1.792 0.224,4.256 1.344,4.479c1.12,0.225 4.704,-0.223 5.376,-0.223c0,-0 -2.464,2.464 -2.24,3.36c0.224,0.896 1.792,3.359 2.688,3.359c0.896,-0 6.496,0.449 7.392,0.672c0.896,0.225 4.928,4.256 5.824,4.704c0.896,0.449 7.168,2.689 7.168,2.689c0,-0 2.24,1.792 6.72,2.912c4.48,1.119 23.319,3.455 23.319,3.455l1.097,-24.287Z" style="fill:#fff;fill-rule:nonzero;stroke:#1a2e35;stroke-width:1px;"/><path d="M426.927,385.657c0,0 2.292,0.44 4.761,0.793" style="fill:none;fill-rule:nonzero;stroke:#1a2e35;stroke-width:1px;"/><path d="M405.907,371.48l10.976,-0.449l10.752,1.12" style="fill:none;fill-rule:nonzero;stroke:#1a2e35;stroke-width:1px;"/><path d="M413.747,378.871l6.048,0.448l9.408,0.448" style="fill:none;fill-rule:nonzero;stroke:#1a2e35;stroke-width:1px;"/><path d="M677.621,423.993l6.251,-62.479c0.881,-8.813 -5.866,-16.537 -14.717,-16.847c-7.837,-0.276 -14.617,5.407 -15.717,13.171l-9.371,66.155l33.554,0Z" style="fill:#1a2e35;fill-rule:nonzero;stroke:#1a2e35;stroke-width:1px;"/></g><g id="Character-1" serif:id="Character 1"><path d="M188.516,252.378c0,-0 -40.979,21.972 -42.741,23.79c-1.762,1.818 -11.922,132.679 -11.922,132.679l124.277,-16.796c0,-0 12.868,-57.461 15.235,-80.668c2.365,-23.207 1.687,-40.315 1.014,-42.272c-0.673,-1.956 -19.269,-11.547 -23.581,-13.587c-4.313,-2.042 -10.842,-4.478 -10.842,-4.478l-51.44,1.332Z" style="fill:#91b7ff;fill-rule:nonzero;stroke:#1a2e35;stroke-width:1px;"/><path d="M245.342,340.59c-10.115,10.414 -32.89,32.522 -53.263,42.765" style="fill:none;fill-rule:nonzero;stroke:#1a2e35;stroke-width:1px;"/><path d="M250.678,334.946c-0,0 -1.284,1.419 -3.557,3.797" style="fill:none;fill-rule:nonzero;stroke:#1a2e35;stroke-width:1px;"/><path d="M185.389,378.081c-2.973,1.381 -5.623,2.386 -7.578,2.726" style="fill:none;fill-rule:nonzero;stroke:#1a2e35;stroke-width:1px;"/><path d="M212.97,361.953c0,0 -12.147,8.134 -22.812,13.752" style="fill:none;fill-rule:nonzero;stroke:#1a2e35;stroke-width:1px;"/><path d="M192.879,393.263c0,-0 -28.474,-14.113 -31.992,-15.444c-3.517,-1.331 -17.71,14.71 -17.71,14.71l57.208,13.31l-7.506,-12.576Z" style="fill:#fff;fill-rule:nonzero;stroke:#1a2e35;stroke-width:1px;"/><path d="M149.394,394.234c0,0 8.981,-12.328 13.418,-14.019" style="fill:none;fill-rule:nonzero;stroke:#1a2e35;stroke-width:1px;"/><path d="M157.998,395.585c-0,-0 7.654,-11.027 10.356,-13.136" style="fill:none;fill-rule:nonzero;stroke:#1a2e35;stroke-width:1px;"/><path d="M164.914,397.011c-0,-0 5.58,-9.939 8.788,-11.823" style="fill:none;fill-rule:nonzero;stroke:#1a2e35;stroke-width:1px;"/><path d="M169.613,398.04c-0,-0 3.378,-2.637 4.631,-2.196c1.252,0.44 6.96,4.404 7.996,5.102" style="fill:none;fill-rule:nonzero;stroke:#1a2e35;stroke-width:1px;"/><path d="M274.38,269.111c-0,0 -1.938,7.539 -6.849,21.919c-4.909,14.38 -8.606,21.254 -8.606,21.254l-11.291,68.815l-54.755,12.163l7.505,12.577c0,0 31.501,2.798 47.343,-1.147c15.84,-3.945 22.664,-5.992 23.462,-7.767c0.798,-1.775 7.955,-40.598 7.625,-66.664c-0.331,-26.065 -0.986,-63.045 -4.435,-61.15Z" style="fill:#91b7ff;fill-rule:nonzero;stroke:#1a2e35;stroke-width:1px;"/><path d="M258.925,312.284l16.517,-24.592" style="fill:none;fill-rule:nonzero;stroke:#1a2e35;stroke-width:1px;"/><path d="M262.952,311.356l11.178,-14.663" style="fill:none;fill-rule:nonzero;stroke:#1a2e35;stroke-width:1px;"/><path d="M250.697,380.217c-0,-0 11.546,-0.771 17.011,5.688" style="fill:none;fill-rule:nonzero;stroke:#1a2e35;stroke-width:1px;"/><path d="M198.81,392.001l8.589,13.77" style="fill:none;fill-rule:nonzero;stroke:#1a2e35;stroke-width:1px;"/><path d="M250.17,377.26c0,-0 5.646,-4.229 15.332,-1.687" style="fill:none;fill-rule:nonzero;stroke:#1a2e35;stroke-width:1px;"/><path d="M227.913,405.092l14.677,1.571l-2.749,21.735l-15.33,-0.798l3.402,-22.508Z" style="fill:#fff;fill-rule:nonzero;stroke:#1a2e35;stroke-width:1px;"/><path d="M156.123,270.483c-0,0 -23.249,9.993 -24.459,15.016c-1.212,5.022 -14.654,59.033 -20.16,87.348c-5.506,28.317 -7.482,48.029 -5.675,49.189c1.806,1.16 31.328,6.035 66.808,7.412c35.48,1.376 50.303,1.948 51.847,0.388c1.545,-1.56 4.271,-23.541 3.429,-24.745c-0.842,-1.204 -80.346,-14.748 -80.346,-14.748c-0,0 20.475,-68.983 20.454,-71.714c-0.021,-2.732 -10.508,-21.134 -14.624,-26.165" style="fill:#91b7ff;fill-rule:nonzero;stroke:#1a2e35;stroke-width:1px;"/><path d="M147.567,390.344c0,-0 -13.578,-1.894 -23.26,8.297" style="fill:none;fill-rule:nonzero;stroke:#1a2e35;stroke-width:1px;"/><path d="M124.307,393.036c0,0 -6.115,6.114 -7.644,11.72" style="fill:none;fill-rule:nonzero;stroke:#1a2e35;stroke-width:1px;"/><path d="M242.59,406.663c0,0 30.721,-10.33 32.792,-8.934c2.072,1.397 13.943,11.54 14.086,13.025c0.143,1.483 -0.223,5.225 -1.381,5.774c-1.158,0.55 -3.28,1.143 -3.28,1.143c-0,0 -3.291,11.077 -4.642,12.132c-1.351,1.054 -5.378,1.982 -7.282,2.316c-1.905,0.335 -33.043,-3.722 -33.043,-3.722l2.75,-21.734Z" style="fill:#fff;fill-rule:nonzero;stroke:#1a2e35;stroke-width:1px;"/><path d="M284.807,417.671c0,-0 -2.598,-4.354 -3.875,-5.041c-1.276,-0.688 -8.552,-3.339 -8.552,-3.339" style="fill:none;fill-rule:nonzero;stroke:#1a2e35;stroke-width:1px;"/><path d="M271.237,417.539c-0,0 8.627,1.597 11.348,4.703" style="fill:none;fill-rule:nonzero;stroke:#1a2e35;stroke-width:1px;"/><path d="M270.552,425.519c0,-0 7.197,2.582 10.983,1.665" style="fill:none;fill-rule:nonzero;stroke:#1a2e35;stroke-width:1px;"/><path d="M205.366,291.606l8.106,13.792l-12.647,94.957l8.996,15.49l16.966,-17.409l-9.675,-92.955l9.446,-17.565l-10.475,-8.22l-10.717,11.91Z" style="fill:#fff;fill-rule:nonzero;stroke:#1a2e35;stroke-width:1px;"/><path d="M193.754,246.428l-7.357,4.058c0,0 -0.065,14.409 3.824,27.15c3.89,12.74 7.375,21.276 7.375,21.276l19.103,-10.303l18.811,11.818c-0,0 2.571,-13.53 1.381,-25.895c-1.19,-12.365 -6.381,-26.04 -6.381,-26.04c-0,0 -26.578,-6.995 -36.756,-2.064Z" style="fill:#91b7ff;fill-rule:nonzero;stroke:#1a2e35;stroke-width:1px;"/><path d="M200.914,265.479c0,-0 3.414,7.794 5.723,11.663c2.309,3.87 10.062,11.468 10.062,11.468c0,-0 7.823,-11.779 9.32,-13.834l1.498,-2.055c0,-0 -10.077,0.952 -12.318,0.309c-2.241,-0.644 -14.285,-7.552 -14.285,-7.552Z" style="fill:#1a2e35;fill-rule:nonzero;stroke:#1a2e35;stroke-width:1px;"/><path d="M246.866,219.112c-0,-0 -3.931,20.499 -3.858,23.231c0.072,2.732 1.826,11.056 0.608,14.237c-1.217,3.181 -14.753,16.885 -19.005,20.203c-4.251,3.319 -10.375,3.009 -13.691,0.229c-3.315,-2.781 -14.564,-14.778 -16.418,-18.212c-1.854,-3.433 -3.872,-12.525 -3.872,-12.525c-0,-0 -5.401,-2.687 -8.58,-8.015c-3.18,-5.327 -4.863,-8.963 -0.537,-11.504l-1.982,-22.577c-0,-0 7.46,-7.567 25.113,-6.215c17.652,1.351 42.222,21.148 42.222,21.148Z" style="fill:#fff;fill-rule:nonzero;stroke:#1a2e35;stroke-width:1px;"/><path d="M188.998,231.302l4.198,9.971l2.502,0.278l-1.299,-7.562c-0,0 9.962,-5.335 10.493,-5.75c0.531,-0.415 -2.203,-12.992 -2.315,-14.16c-0.113,-1.167 0.632,-5.304 14.754,-1.057c14.121,4.246 14.608,9.304 21.585,10.552c6.977,1.248 7.662,-1.519 7.662,-1.519c-0,0 7.602,1.806 11.818,-3.856c4.217,-5.661 -8.233,-12.328 -8.233,-12.328c-0,0 2.023,-10.643 -2.997,-15.301c-5.02,-4.658 -9.519,0.04 -9.463,0.623c0.056,0.584 -18.132,-12.272 -27.139,-12.842c-9.006,-0.569 -29.388,13.248 -32.904,20.246c-3.516,6.998 3.854,28.159 3.854,28.159c-0,0 4.59,-1.771 7.484,4.546Z" style="fill:#1a2e35;fill-rule:nonzero;stroke:#1a2e35;stroke-width:1px;"/><path d="M231.667,243.247l0.342,15.421l-7.717,-1.019" style="fill:none;fill-rule:nonzero;stroke:#1a2e35;stroke-width:1px;"/><path d="M216.457,261.324c0,0 6.384,4.987 13.157,2.142" style="fill:none;fill-rule:nonzero;stroke:#1a2e35;stroke-width:1px;"/><path d="M221.373,241.172c0,-0 -2.243,4.4 -9.767,1.418" style="fill:none;fill-rule:nonzero;stroke:#1a2e35;stroke-width:1px;"/><path d="M234.023,240.014c-0,-0 3.259,2.198 6.808,-0.503" style="fill:none;fill-rule:nonzero;stroke:#1a2e35;stroke-width:1px;"/><path d="M203.457,239.051c-0,-0 9.067,-2.754 25.811,-2.925c-0,-0 -1.484,4.365 -3.025,8.148c-1.54,3.782 -2.018,6.734 -8.182,7.99c-6.164,1.256 -11.338,-1.051 -12.321,-3.351c-0.984,-2.3 -2.283,-9.862 -2.283,-9.862Z" style="fill:none;fill-rule:nonzero;stroke:#1a2e35;stroke-width:1px;"/><path d="M229.268,236.125c-0,0 15.856,-3.453 20.541,-4.25c-0,0 0.07,4.686 -1.128,8.063c-1.199,3.375 -3.744,6.617 -6.134,7.506c-2.39,0.889 -7.778,2.306 -9.158,-0.173c-0.683,-1.222 -4.121,-11.145 -4.121,-11.145Z" style="fill:none;fill-rule:nonzero;stroke:#1a2e35;stroke-width:1px;"/><path d="M249.809,231.875l-4.792,-4.277" style="fill:none;fill-rule:nonzero;stroke:#1a2e35;stroke-width:1px;"/><path d="M203.457,239.051l-14.459,-7.749" style="fill:none;fill-rule:nonzero;stroke:#1a2e35;stroke-width:1px;"/><path d="M209.225,235.664c0,-0 6.033,-2.617 13.939,-1.607" style="fill:none;fill-rule:nonzero;stroke:#1a2e35;stroke-width:1px;"/><path d="M233.575,233.391c0,-0 2.318,-3.622 9.275,-2.569" style="fill:none;fill-rule:nonzero;stroke:#1a2e35;stroke-width:1px;"/></g><g id="Device"><path d="M504.104,447.88l-24.215,-12.217l107.497,-0l31.188,12.217l-114.47,-0Z" style="fill:#fff;fill-rule:nonzero;stroke:#1a2e35;stroke-width:1px;stroke-linejoin:miter;"/><path d="M515.793,447.436l-20.733,-10.461l92.042,0l26.704,10.46l-98.013,0Z" style="fill:#fff;fill-rule:nonzero;stroke:#1a2e35;stroke-width:1px;stroke-linejoin:miter;"/><path d="M504.104,447.88l114.47,-0l15.611,-73.683l-114.47,-0l-15.611,73.683Z" style="fill:#fff;fill-rule:nonzero;stroke:#1a2e35;stroke-width:1px;stroke-linejoin:miter;"/><path d="M564.23,408.79c-2.888,2.867 -3.109,7.326 -0.495,9.959c2.615,2.634 7.075,2.443 9.963,-0.424c2.887,-2.868 3.109,-7.327 0.495,-9.96c-2.614,-2.633 -7.075,-2.442 -9.963,0.425" style="fill:#fff;fill-rule:nonzero;"/><path d="M564.229,408.789c-2.886,2.866 -3.107,7.329 -0.494,9.96c2.612,2.632 7.077,2.442 9.963,-0.424c2.886,-2.866 3.108,-7.329 0.495,-9.96c-2.613,-2.632 -7.077,-2.441 -9.964,0.424Z" style="fill:none;stroke:#1a2e35;stroke-width:1px;stroke-linejoin:miter;"/></g><g id="Papers"><path d="M347.151,427.599l-49.411,22.199l89.512,5.013l40.818,-25.779l-80.919,-1.433Z" style="fill:#fff;fill-rule:nonzero;stroke:#1a2e35;stroke-width:1px;"/><path d="M354.265,428.104l-42.901,28.139l91.338,7.841l14.3,-35.519l-62.737,-0.462Z" style="fill:#fff;fill-rule:nonzero;stroke:#1a2e35;stroke-width:1px;"/></g><g id="Books"><path d="M206.703,411.708c0,-3.854 0.987,-7.389 2.628,-10.146l-84.752,-0c-5.442,-0 -9.855,4.414 -9.855,9.856c0,5.442 4.413,9.854 9.855,9.854l84.439,0c-1.447,-2.666 -2.315,-5.97 -2.315,-9.564" style="fill:#fff;fill-rule:nonzero;"/><path d="M206.703,411.708c0,-3.854 0.987,-7.389 2.628,-10.146l-84.752,-0c-5.442,-0 -9.855,4.414 -9.855,9.856c0,5.442 4.413,9.854 9.855,9.854l84.439,0c-1.447,-2.666 -2.315,-5.97 -2.315,-9.564Z" style="fill:none;fill-rule:nonzero;stroke:#1a2e35;stroke-width:1px;stroke-linejoin:miter;"/><path d="M209.019,423.011l-84.439,-0c-6.393,-0 -11.593,-5.2 -11.593,-11.593c-0,-6.391 5.2,-11.592 11.593,-11.592l84.752,-0c0.959,-0 1.737,0.778 1.737,1.737c-0,0.96 -0.778,1.737 -1.737,1.737l-84.752,-0c-4.477,-0 -8.118,3.642 -8.118,8.118c-0,4.477 3.641,8.118 8.118,8.118l84.439,-0c0.959,-0 1.737,0.779 1.737,1.738c-0,0.959 -0.778,1.737 -1.737,1.737Z" style="fill:#8e8e8e;fill-rule:nonzero;stroke:#1a2e35;stroke-width:1px;stroke-linejoin:miter;"/><path d="M197.545,401.563c-1.642,2.757 -2.628,6.291 -2.628,10.145c-0,3.594 0.868,6.899 2.315,9.565l11.787,-0c-1.447,-2.666 -2.315,-5.971 -2.315,-9.565c-0,-3.854 0.987,-7.388 2.628,-10.145l-11.787,-0Z" style="fill:#fff;fill-rule:nonzero;stroke:#1a2e35;stroke-width:1px;stroke-linejoin:miter;"/><path d="M209.095,434.702c-0,-3.854 0.986,-7.389 2.628,-10.145l-84.752,0c-5.443,0 -9.855,4.413 -9.855,9.855c-0,5.443 4.412,9.855 9.855,9.855l84.439,0c-1.447,-2.666 -2.315,-5.971 -2.315,-9.565" style="fill:#fff;fill-rule:nonzero;"/><path d="M209.095,434.702c-0,-3.854 0.986,-7.389 2.628,-10.145l-84.752,0c-5.443,0 -9.855,4.413 -9.855,9.855c-0,5.443 4.412,9.855 9.855,9.855l84.439,0c-1.447,-2.666 -2.315,-5.971 -2.315,-9.565Z" style="fill:none;fill-rule:nonzero;stroke:#1a2e35;stroke-width:1px;stroke-linejoin:miter;"/><path d="M211.41,446.005l-84.439,-0c-6.393,-0 -11.593,-5.2 -11.593,-11.592c-0,-6.392 5.2,-11.593 11.593,-11.593l84.752,-0c0.959,-0 1.737,0.779 1.737,1.738c-0,0.959 -0.778,1.737 -1.737,1.737l-84.752,-0c-4.477,-0 -8.118,3.642 -8.118,8.118c-0,4.477 3.641,8.118 8.118,8.118l84.439,-0c0.959,-0 1.737,0.778 1.737,1.738c-0,0.959 -0.778,1.736 -1.737,1.736Z" style="fill:#91b7ff;fill-rule:nonzero;stroke:#1a2e35;stroke-width:1px;stroke-linejoin:miter;"/><path d="M199.936,424.558c-1.642,2.756 -2.628,6.291 -2.628,10.145c-0,3.593 0.868,6.899 2.315,9.565l11.787,-0c-1.447,-2.666 -2.315,-5.972 -2.315,-9.565c-0,-3.854 0.987,-7.389 2.628,-10.145l-11.787,-0Z" style="fill:#fff;fill-rule:nonzero;stroke:#1a2e35;stroke-width:1px;stroke-linejoin:miter;"/></g></svg>