<?xml version="1.0" encoding="UTF-8" standalone="no"?>
<!DOCTYPE svg PUBLIC "-//W3C//DTD SVG 1.1//EN" "http://www.w3.org/Graphics/SVG/1.1/DTD/svg11.dtd">
<svg width="100%" height="100%" viewBox="0 0 5156 1180" version="1.1" xmlns="http://www.w3.org/2000/svg" xmlns:xlink="http://www.w3.org/1999/xlink" xml:space="preserve" xmlns:serif="http://www.serif.com/" style="fill-rule:evenodd;clip-rule:evenodd;stroke-linecap:round;stroke-linejoin:round;stroke-miterlimit:1.5;">
    <g transform="matrix(1,0,0,1,-5933.46,-9635.83)">
        <g transform="matrix(1,0,0,1,155.667,-3346.5)">
            <g transform="matrix(4.73966,0,0,4.73966,-17399.7,-9334.91)">
                <path d="M4893.06,4918L5036.7,4918C5100.59,4918 5118.02,4867.57 5118.02,4819.86C5118.02,4688.5 4929.15,4673.99 4929.15,4819.86C4929.15,4908.76 4981.71,4918 5010.58,4918C5092.25,4918 5070.03,4791.6 5118.02,4739.1C5148.4,4705.87 5184.78,4701.69 5206.75,4732.13C5227.34,4760.64 5202.14,4796.99 5169.12,4796.99C5144.95,4796.99 5245.41,4806.11 5245.41,4850.16C5245.41,4917.78 5119.45,4959.41 5132.83,4918C5169.12,4805.72 5187.83,4903.34 5240.92,4918C5251.19,4920.83 5267.2,4921.36 5279.39,4918C5313.98,4908.45 5344.03,4893.76 5348.59,4875.25C5352.13,4860.91 5371.49,4857.18 5371.49,4882.8C5371.49,4901.13 5360.12,4918 5337.23,4918C5320.19,4918 5308.58,4900.04 5308.58,4882.8C5308.58,4851.29 5347.8,4832.89 5367.26,4867.21C5379.41,4888.64 5391.21,4882.8 5396.26,4871.77C5405.26,4852.07 5400.01,4847.04 5393.97,4847.04C5382.78,4847.04 5386.14,4870.84 5386.14,4882.8C5386.14,4904.39 5390.76,4918 5404.56,4918C5411.81,4918 5412.12,4918 5422.61,4918C5432.51,4918 5435.25,4904.39 5435.25,4898.73C5435.25,4878.32 5411.43,4881.6 5408.78,4898.73C5406.2,4915.42 5434.17,4929.07 5435.25,4898.73C5435.8,4883.05 5429.38,4986.89 5412.66,4944.19C5402.41,4918 5435.92,4918 5446.49,4918C5471.71,4918 5478.39,4918 5478.39,4898.73C5478.39,4879.65 5450.11,4877.89 5450.11,4898.73C5450.11,4918 5478.39,4926.52 5478.39,4898.73C5478.39,4877.12 5452.85,4918.01 5491.15,4918C5525.87,4917.98 5585.12,4855.77 5560.85,4855.77C5547.53,4855.77 5563.93,4916.73 5549.88,4918C5530.49,4919.75 5533.79,4846.89 5560.85,4846.89C5603.81,4846.89 5566.5,4895.38 5560.85,4882.8C5557.64,4875.65 5584.04,4872.3 5590.39,4882.65C5602.51,4902.44 5586.08,4918 5566.5,4918C5553.85,4918 5560.85,4898.73 5574.93,4908.83C5578.16,4911.15 5584.73,4917.99 5597.23,4918C5615.86,4918.01 5606.94,4881.79 5612.43,4887.28C5625.63,4900.48 5644.41,4894.41 5639.46,4887.28C5630.77,4874.75 5620.72,4914.59 5626.61,4918C5636.12,4923.49 5661.27,4878.96 5658.5,4887.43C5649.17,4915.97 5654.19,4918 5667.99,4918C5675.24,4918 5675.55,4918 5686.04,4918C5695.94,4918 5699.08,4904.24 5699.08,4898.58C5699.08,4878.17 5675.19,4881.45 5672.54,4898.58C5669.95,4915.27 5698.01,4928.91 5699.08,4898.56C5699.64,4882.89 5693.22,4986.72 5676.5,4944.02C5666.24,4917.83 5698.67,4917.99 5704.62,4918C5717.51,4918.01 5743.57,4847.04 5729.02,4847.04C5712.68,4847.04 5730.01,4918 5721.83,4918C5712.94,4918 5726.82,4874.13 5740.12,4887.43C5751.4,4898.71 5724.05,4918 5740.12,4918C5745.12,4918 5764.51,4909.06 5775.02,4898.58C5783.26,4890.36 5764.04,4871.89 5760.23,4898.56C5755.63,4930.76 5777.72,4916.03 5784.75,4908.83C5794.76,4898.56 5793.83,4882.69 5803.82,4882.65C5817.69,4882.61 5803.82,4917.98 5799.95,4918C5794.3,4918.02 5802.54,4882.65 5817.12,4882.65C5840.72,4882.65 5808.08,4918 5825.87,4918C5844.21,4918 5863.47,4849.01 5859.27,4847.04C5851.67,4843.46 5842.92,4894.15 5842.7,4908.83C5842.56,4918.66 5856.29,4922.87 5863.47,4918C5875.29,4909.95 5885.76,4886.07 5885.54,4887.28C5885.06,4889.93 5884.82,4892.36 5884.79,4894.57C5884.51,4918 5908,4918 5917.43,4918C5938.02,4918 5947.93,4918 5974.87,4918" style="fill:none;stroke:black;stroke-width:5.88px;"/>
            </g>
            <g transform="matrix(8.05259,0,0,10.9434,-36349.1,-40095.5)">
                <path d="M5785.01,4918L5810.77,4918" style="fill:none;stroke:black;stroke-width:2.9px;"/>
            </g>
        </g>
    </g>
</svg>
