<?xml version="1.0" encoding="UTF-8" standalone="no"?><!DOCTYPE svg PUBLIC "-//W3C//DTD SVG 1.1//EN" "http://www.w3.org/Graphics/SVG/1.1/DTD/svg11.dtd"><svg width="100%" height="100%" viewBox="0 0 3676 1179" version="1.1" xmlns="http://www.w3.org/2000/svg" xmlns:xlink="http://www.w3.org/1999/xlink" xml:space="preserve" xmlns:serif="http://www.serif.com/" style="fill-rule:evenodd;clip-rule:evenodd;stroke-linecap:round;stroke-linejoin:round;stroke-miterlimit:1.5;"><g><path d="M13.929,992.379l680.802,0c302.79,0 385.425,-238.987 385.425,-465.111c-0,-622.638 -895.203,-691.414 -895.203,-0c0,421.336 249.124,465.111 385.993,465.111c387.062,0 281.732,-599.057 509.21,-847.9c143.981,-157.504 316.405,-177.299 420.544,-33.061c97.589,135.165 -21.832,307.457 -178.328,307.457c-114.572,-0 361.57,43.176 361.57,251.969c0,320.526 -597.025,517.84 -533.575,321.535c172.005,-532.16 252.377,-77.245 502.66,-2.992c215.479,63.927 279.784,-161.661 291.143,-142.584c45.259,76.016 151.562,33.778 128.122,0c-41.226,-59.406 -88.824,129.452 -60.896,145.576c45.07,26.022 164.267,-185.036 151.136,-144.878c-44.24,135.288 -20.435,144.878 44.974,144.878c34.36,0 35.832,0 85.531,0c46.913,0 61.819,-65.182 61.819,-92.039c0,-96.708 -113.229,-81.17 -125.797,-0c-12.252,79.126 120.713,143.753 125.797,-0.077c2.626,-74.296 -27.79,417.856 -107.035,215.471c-48.604,-124.13 105.092,-123.39 133.305,-123.355c61.061,0.077 184.6,-336.327 115.626,-336.327c-77.445,-0 4.708,336.327 -34.062,336.327c-42.138,0 23.634,-207.909 86.666,-144.878c53.46,53.46 -76.147,144.878 0,144.878c23.701,0 115.628,-42.345 165.432,-92.039c39.052,-38.966 -52.033,-126.492 -70.096,-0.077c-21.805,152.595 82.906,82.798 116.202,48.657c47.452,-48.657 43.03,-123.883 90.371,-124.05c65.772,-0.233 -0,167.444 -18.337,167.509c-26.788,0.095 12.307,-167.509 81.416,-167.509c111.84,-0 -42.875,167.509 41.433,167.509c86.926,0 178.215,-326.964 158.325,-336.327c-36.035,-16.964 -77.515,223.284 -78.527,292.868c-0.678,46.629 64.417,66.577 98.417,43.459c56.051,-38.11 105.673,-151.335 104.624,-145.576c-2.29,12.572 -3.422,24.058 -3.547,34.553c-1.328,111.023 110.003,111.023 154.708,111.023c97.578,0 144.537,0 272.22,0" style="fill:none;stroke:#000;stroke-width:27.86px;"/><path d="M2981.04,741.713l207.45,0" style="fill:none;stroke:#000;stroke-width:27.86px;"/></g></svg>