<?xml version="1.0" encoding="UTF-8" standalone="no"?><!DOCTYPE svg PUBLIC "-//W3C//DTD SVG 1.1//EN" "http://www.w3.org/Graphics/SVG/1.1/DTD/svg11.dtd"><svg width="100%" height="100%" viewBox="0 0 1355 284" version="1.1" xmlns="http://www.w3.org/2000/svg" xmlns:xlink="http://www.w3.org/1999/xlink" xml:space="preserve" xmlns:serif="http://www.serif.com/" style="fill-rule:evenodd;clip-rule:evenodd;stroke-linecap:round;stroke-linejoin:round;stroke-miterlimit:1.5;"><g><path d="M73.697,238.171l128.431,-0c72.67,-0 92.502,-57.357 92.502,-111.627c-0,-149.433 -214.849,-165.939 -214.849,0c0,101.121 59.79,111.627 92.638,111.627c92.895,-0 67.616,-143.774 122.211,-203.496c34.555,-37.801 75.937,-42.552 100.931,-7.935c23.421,32.44 -5.24,73.79 -42.799,73.79c-27.497,-0 86.777,10.362 86.777,60.473c-0,76.926 -143.286,124.281 -128.059,77.168c41.282,-127.718 60.057,-0 122.713,-0" style="fill:none;stroke:#000;stroke-width:6.69px;"/><path d="M74.285,241.528c0.711,-0 0.711,-6.725 0,-6.725l-73.011,3.313c-1.75,0.063 -1.646,2.755 0,2.814l73.011,0.598Z"/><path d="M434.41,241.506c-4.577,-0.852 -0.481,-6.693 -0,-6.669c0.629,0.033 38.703,2.346 54.853,3.176c1.067,0.055 0.635,3.606 -0.165,3.493c-16.816,0 -37.913,0 -54.688,0Z"/><path d="M479.636,239.757c12.991,0 15.601,0 32.913,0c40.819,0 73.53,-27.573 78.722,-48.629c4.023,-16.312 26.051,-20.556 26.051,8.589c-0,20.852 -12.936,40.04 -38.971,40.04c-19.384,0 -32.592,-20.421 -32.592,-40.04c-0,-35.838 44.61,-56.766 66.752,-17.727c13.824,24.374 27.24,17.732 32.979,5.179c10.241,-22.4 4.275,-28.13 -2.597,-28.13c-12.736,-0 -8.906,27.079 -8.906,40.678c0,24.567 5.254,40.04 20.952,40.04c8.247,0 8.6,0 20.528,0c11.259,0 14.376,-15.476 14.376,-21.922c0,-23.21 -27.087,-19.481 -30.104,0c-2.94,18.991 28.884,34.519 30.104,0c0.631,-17.831 -6.669,100.286 -25.688,51.713c-11.665,-29.791 26.457,-29.791 38.478,-29.791c28.69,0 36.288,0 36.288,-21.922c-0,-21.692 -32.172,-23.696 -32.172,0c0,21.922 32.172,31.622 32.172,0c-0,-24.572 -29.059,21.943 14.511,21.922c39.497,-0.018 106.893,-70.789 79.287,-70.789c-15.155,-0 3.509,69.344 -12.478,70.789c-22.051,1.993 -18.305,-80.886 12.478,-80.886c48.866,-0 6.425,55.156 0,40.846c-3.647,-8.125 26.38,-11.942 33.598,-0.162c13.789,22.503 -4.9,40.202 -27.173,40.202c-14.386,0 -6.425,-21.922 9.589,-10.43c3.674,2.636 11.146,10.422 25.376,10.43c21.192,0.013 11.041,-41.183 17.286,-34.938c15.014,15.014 36.375,8.107 30.749,-0c-9.894,-14.258 -21.318,31.068 -14.615,34.938c10.817,6.245 39.424,-44.409 36.273,-34.771c-10.618,32.469 -4.904,34.771 10.794,34.771c8.246,0 8.599,0 20.527,0c11.259,0 14.837,-15.644 14.837,-22.089c-0,-23.21 -27.175,-19.481 -30.192,-0c-2.94,18.99 28.971,34.5 30.192,-0.019c0.63,-17.831 -6.67,100.286 -25.689,51.713c-11.665,-29.791 25.222,-29.613 31.994,-29.605c14.654,0.019 44.303,-80.718 27.75,-80.718c-18.587,-0 1.13,80.718 -8.175,80.718c-10.113,0 5.672,-49.898 20.8,-34.771c12.83,12.831 -18.276,34.771 -0,34.771c5.688,0 27.75,-10.163 39.703,-22.089c9.373,-9.352 -12.488,-30.358 -16.823,-0.019c-5.233,36.623 19.898,19.872 27.889,11.678c11.388,-11.678 10.327,-29.732 21.689,-29.772c15.785,-0.056 -0,40.187 -4.401,40.202c-6.429,0.023 2.954,-40.202 19.54,-40.202c26.841,-0 -10.29,40.202 9.944,40.202c20.862,0 42.771,-78.471 37.998,-80.718c-8.649,-4.072 -18.604,53.588 -18.847,70.288c-0.163,11.191 15.46,15.978 23.62,10.43c13.452,-9.146 25.362,-36.32 25.11,-34.938c-0.55,3.017 -0.821,5.774 -0.851,8.292c-0.319,26.646 26.4,26.646 37.13,26.646c23.418,0 83.56,0 114.204,0" style="fill:none;stroke:#000;stroke-width:3.49px;"/><path d="M1141.79,179.668l49.788,0" style="fill:none;stroke:#000;stroke-width:3.2px;"/></g></svg>